name Walk7.mot
datacolumns 19
datarows 30
range 2.20500000 2.35000000
endheader

                time	   L_ground_force_vx	   L_ground_force_vy	   L_ground_force_vz	   L_ground_force_px	   L_ground_force_py	   L_ground_force_pz	   R_ground_force_vx	   R_ground_force_vy	   R_ground_force_vz	   R_ground_force_px	   R_ground_force_py	   R_ground_force_pz	   L_ground_torque_x	   L_ground_torque_y	   L_ground_torque_z	   R_ground_torque_x	   R_ground_torque_y	   R_ground_torque_z	
          2.20500000	        -24.59026651	        532.17664509	         29.44148565	          0.46963470	          0.00000000	          0.19261810	         -0.00000000	         -0.00000000	         -0.00000000	          0.00000000	          0.00000000	         -0.00000000	          0.00000000	         -1.86727084	          0.00000000	          0.00000000	          0.00000000	          0.00000000	
          2.21000000	        -22.23239827	        527.85630384	         31.60141022	          0.47169204	          0.00000000	          0.19238236	          0.00000000	         -0.00000000	          0.00000000	          0.00000000	          0.00000000	         -0.00000000	          0.00000000	         -1.94399991	          0.00000000	          0.00000000	          0.00000000	          0.00000000	
          2.21500000	        -20.01187721	        525.22925313	         33.66387631	          0.47366867	          0.00000000	          0.19222895	          0.00000000	          0.00000000	          0.00000000	         -0.00000000	          0.00000000	          0.00000000	          0.00000000	         -1.99014682	          0.00000000	          0.00000000	         -0.00000000	          0.00000000	
          2.22000000	        -18.10330564	        523.92491614	         35.36740690	          0.47553633	          0.00000000	          0.19207455	         -0.00000000	          0.00000000	          0.00000000	         -0.00000000	          0.00000000	          0.00000000	          0.00000000	         -2.03464847	          0.00000000	          0.00000000	         -0.00000000	          0.00000000	
          2.22500000	        -16.42181794	        524.07488378	         36.70479787	          0.47743366	          0.00000000	          0.19174637	         -0.00000000	         -0.00000000	         -0.00000000	         -0.00000000	          0.00000000	          0.00000000	          0.00000000	         -2.08795289	          0.00000000	          0.00000000	         -0.00000000	          0.00000000	
          2.23000000	        -14.60166530	        525.78851435	         37.74438200	          0.47959647	          0.00000000	          0.19133893	         -0.00000000	         -0.00000000	         -0.00000000	          0.00000000	          0.00000000	         -0.00000000	          0.00000000	         -2.13313841	          0.00000000	          0.00000000	          0.00000000	          0.00000000	
          2.23500000	        -12.49197800	        529.37218372	         38.52319295	          0.48176728	          0.00000000	          0.19112189	          0.00000000	         -0.00000000	          0.00000000	          0.00000000	          0.00000000	         -0.00000000	          0.00000000	         -2.16725215	          0.00000000	          0.00000000	          0.00000000	          0.00000000	
          2.24000000	        -10.10483577	        534.35397721	         39.02869840	          0.48352611	          0.00000000	          0.19102207	          0.00000000	          0.00000000	          0.00000000	         -0.00000000	          0.00000000	         -0.00000000	          0.00000000	         -2.22162435	          0.00000000	          0.00000000	          0.00000000	          0.00000000	
          2.24500000	         -7.66123782	        540.32158095	         39.20120509	          0.48526852	          0.00000000	          0.19087319	          0.00000000	          0.00000000	          0.00000000	         -0.00000000	          0.00000000	          0.00000000	          0.00000000	         -2.27984426	          0.00000000	          0.00000000	         -0.00000000	          0.00000000	
          2.25000000	         -5.42017022	        547.72133493	         38.96848173	          0.48700256	          0.00000000	          0.19094249	         -0.00000000	          0.00000000	         -0.00000000	         -0.00000000	          0.00000000	          0.00000000	          0.00000000	         -2.34608962	          0.00000000	          0.00000000	         -0.00000000	          0.00000000	
          2.25500000	         -3.36817174	        556.43033520	         38.32026777	          0.48854672	          0.00000000	          0.19100493	         -0.00000000	         -0.00000000	         -0.00000000	          0.00000000	          0.00000000	         -0.00000000	          0.00000000	         -2.50597637	          0.00000000	          0.00000000	         -0.00000000	          0.00000000	
          2.26000000	         -1.30183157	        565.76411290	         37.24705780	          0.49017695	          0.00000000	          0.19101536	         -0.00000000	         -0.00000000	         -0.00000000	          0.00000000	          0.00000000	         -0.00000000	          0.00000000	         -2.72156014	          0.00000000	          0.00000000	          0.00000000	          0.00000000	
          2.26500000	          0.76797267	        575.43248348	         35.85686301	          0.49192408	          0.00000000	          0.19109228	          0.00000000	         -0.00000000	          0.00000000	          0.00000000	          0.00000000	         -0.00000000	          0.00000000	         -2.90626991	          0.00000000	          0.00000000	          0.00000000	          0.00000000	
          2.27000000	          2.74777436	        585.69580929	         34.28394203	          0.49383471	          0.00000000	          0.19116604	          0.00000000	          0.00000000	          0.00000000	         -0.00000000	          0.00000000	          0.00000000	          0.00000000	         -3.08090785	          0.00000000	          0.00000000	         -0.00000000	          0.00000000	
          2.27500000	          4.66216932	        596.88832497	         32.79037210	          0.49558618	          0.00000000	          0.19121872	          0.00000000	          0.00000000	          0.00000000	         -0.00000000	          0.00000000	          0.00000000	          0.00000000	         -3.23222352	          0.00000000	          0.00000000	         -0.00000000	          0.00000000	
          2.28000000	          6.52506819	        608.29987987	         31.46004026	          0.49725759	          0.00000000	          0.19130874	         -0.00000000	         -0.00000000	         -0.00000000	         -0.00000000	          0.00000000	          0.00000000	          0.00000000	         -3.36333101	          0.00000000	          0.00000000	         -0.00000000	          0.00000000	
          2.28500000	          8.18893587	        619.02695707	         30.30403438	          0.49937915	          0.00000000	          0.19139153	         -0.00000000	         -0.00000000	         -0.00000000	          0.00000000	          0.00000000	         -0.00000000	          0.00000000	         -3.49778999	          0.00000000	          0.00000000	          0.00000000	          0.00000000	
          2.29000000	          9.57551883	        629.10728765	         29.67617946	          0.50180847	          0.00000000	          0.19134311	          0.00000000	         -0.00000000	         -0.00000000	          0.00000000	          0.00000000	         -0.00000000	          0.00000000	         -3.58930500	          0.00000000	          0.00000000	          0.00000000	          0.00000000	
          2.29500000	         10.74441915	        638.76822835	         29.72569683	          0.50422505	          0.00000000	          0.19120374	          0.00000000	          0.00000000	          0.00000000	          0.00000000	          0.00000000	         -0.00000000	          0.00000000	         -3.59255077	          0.00000000	          0.00000000	          0.00000000	          0.00000000	
          2.30000000	         11.64016972	        647.86253937	         30.30529910	          0.50683133	          0.00000000	          0.19117851	          0.00000000	          0.00000000	          0.00000000	         -0.00000000	          0.00000000	          0.00000000	          0.00000000	         -3.52496845	          0.00000000	          0.00000000	         -0.00000000	          0.00000000	
          2.30500000	         12.24735651	        655.75120878	         31.29662498	          0.50966937	          0.00000000	          0.19124591	         -0.00000000	          0.00000000	         -0.00000000	         -0.00000000	          0.00000000	          0.00000000	          0.00000000	         -3.41971951	          0.00000000	          0.00000000	         -0.00000000	          0.00000000	
          2.31000000	         12.63193198	        662.24281558	         32.44086676	          0.51273437	          0.00000000	          0.19137312	         -0.00000000	         -0.00000000	         -0.00000000	          0.00000000	          0.00000000	         -0.00000000	          0.00000000	         -3.28872873	          0.00000000	          0.00000000	         -0.00000000	          0.00000000	
          2.31500000	         12.82644518	        668.22192361	         33.44918236	          0.51585178	          0.00000000	          0.19144006	         -0.00000000	         -0.00000000	         -0.00000000	          0.00000000	          0.00000000	         -0.00000000	          0.00000000	         -3.16615455	          0.00000000	          0.00000000	          0.00000000	          0.00000000	
          2.32000000	         13.12810897	        673.83076199	         34.22629969	          0.51907174	          0.00000000	          0.19129738	          0.00000000	         -0.00000000	          0.00000000	          0.00000000	          0.00000000	         -0.00000000	          0.00000000	         -3.04558550	          0.00000000	          0.00000000	          0.00000000	          0.00000000	
          2.32500000	         13.65878889	        679.31974212	         34.82653837	          0.52261574	          0.00000000	          0.19115429	          0.00000000	          0.00000000	          0.00000000	         -0.00000000	          0.00000000	          0.00000000	          0.00000000	         -2.93365338	          0.00000000	          0.00000000	         -0.00000000	          0.00000000	
          2.33000000	         14.29677970	        685.22098798	         35.19259598	          0.52623297	          0.00000000	          0.19127474	          0.00000000	          0.00000000	          0.00000000	         -0.00000000	          0.00000000	          0.00000000	          0.00000000	         -2.83958222	          0.00000000	          0.00000000	         -0.00000000	          0.00000000	
          2.33500000	         15.08523080	        690.93247318	         35.41012396	          0.52953082	          0.00000000	          0.19146370	         -0.00000000	          0.00000000	         -0.00000000	         -0.00000000	          0.00000000	          0.00000000	          0.00000000	         -2.76356047	          0.00000000	          0.00000000	         -0.00000000	          0.00000000	
          2.34000000	         16.07472496	        696.74731312	         35.59198262	          0.53246256	          0.00000000	          0.19172023	         -0.00000000	         -0.00000000	         -0.00000000	          0.00000000	          0.00000000	         -0.00000000	          0.00000000	         -2.68615088	          0.00000000	          0.00000000	          0.00000000	          0.00000000	
          2.34500000	         17.25033635	        702.89042217	         35.76155954	          0.53554607	          0.00000000	          0.19195225	          0.00000000	         -0.00000000	         -0.00000000	          0.00000000	          0.00000000	         -0.00000000	          0.00000000	         -2.61380201	          0.00000000	          0.00000000	          0.00000000	          0.00000000	
          2.35000000	         18.65935597	        708.95667586	         35.92848597	          0.53885895	          0.00000000	          0.19203296	          0.00000000	          0.00000000	          0.00000000	          0.00000000	          0.00000000	         -0.00000000	          0.00000000	         -2.56886897	          0.00000000	          0.00000000	          0.00000000	          0.00000000	
